<svg id="visual" viewBox="0 0 900 600" width="900" height="600" xmlns="http://www.w3.org/2000/svg" xmlns:xlink="http://www.w3.org/1999/xlink" version="1.1"><rect x="0" y="0" width="900" height="600" fill="#001220"></rect><g fill="#A7233A"><circle r="15" cx="801" cy="376"></circle><circle r="3" cx="518" cy="238"></circle><circle r="4" cx="200" cy="585"></circle><circle r="3" cx="859" cy="380"></circle><circle r="8" cx="467" cy="413"></circle><circle r="3" cx="729" cy="165"></circle><circle r="8" cx="650" cy="477"></circle><circle r="12" cx="14" cy="22"></circle><circle r="6" cx="464" cy="300"></circle><circle r="10" cx="7" cy="132"></circle><circle r="12" cx="594" cy="303"></circle><circle r="12" cx="826" cy="403"></circle><circle r="6" cx="35" cy="147"></circle><circle r="10" cx="174" cy="412"></circle><circle r="4" cx="577" cy="432"></circle><circle r="3" cx="148" cy="237"></circle><circle r="10" cx="320" cy="242"></circle><circle r="7" cx="667" cy="373"></circle><circle r="5" cx="524" cy="146"></circle><circle r="3" cx="580" cy="545"></circle><circle r="3" cx="112" cy="408"></circle><circle r="5" cx="219" cy="34"></circle><circle r="12" cx="73" cy="137"></circle><circle r="8" cx="213" cy="199"></circle><circle r="5" cx="893" cy="561"></circle><circle r="4" cx="84" cy="384"></circle><circle r="12" cx="342" cy="491"></circle><circle r="4" cx="688" cy="332"></circle><circle r="12" cx="706" cy="374"></circle><circle r="13" cx="696" cy="190"></circle><circle r="5" cx="225" cy="457"></circle><circle r="8" cx="627" cy="352"></circle><circle r="7" cx="248" cy="569"></circle><circle r="9" cx="118" cy="93"></circle><circle r="6" cx="855" cy="349"></circle><circle r="8" cx="281" cy="154"></circle><circle r="8" cx="479" cy="473"></circle><circle r="6" cx="112" cy="59"></circle><circle r="11" cx="71" cy="454"></circle><circle r="7" cx="480" cy="105"></circle></g></svg>