<svg id="visual" viewBox="0 0 1920 1080" width="1920" height="1080" xmlns="http://www.w3.org/2000/svg" xmlns:xlink="http://www.w3.org/1999/xlink" version="1.1"><rect x="0" y="0" width="1920" height="1080" fill="#001220"></rect><g fill="#A7233A"><circle r="63" cx="1138" cy="309"></circle><circle r="36" cx="1028" cy="752"></circle><circle r="55" cx="714" cy="227"></circle><circle r="39" cx="483" cy="878"></circle><circle r="59" cx="497" cy="50"></circle><circle r="41" cx="1615" cy="772"></circle><circle r="46" cx="56" cy="805"></circle><circle r="37" cx="1493" cy="90"></circle><circle r="36" cx="155" cy="413"></circle><circle r="57" cx="1309" cy="452"></circle><circle r="36" cx="813" cy="1035"></circle><circle r="59" cx="1895" cy="554"></circle><circle r="58" cx="26" cy="254"></circle><circle r="48" cx="1910" cy="1067"></circle><circle r="55" cx="856" cy="854"></circle><circle r="51" cx="886" cy="519"></circle><circle r="36" cx="1145" cy="559"></circle><circle r="59" cx="1555" cy="467"></circle><circle r="43" cx="862" cy="199"></circle><circle r="45" cx="1349" cy="277"></circle><circle r="37" cx="1775" cy="700"></circle><circle r="37" cx="1273" cy="117"></circle><circle r="35" cx="178" cy="769"></circle><circle r="56" cx="271" cy="531"></circle></g></svg>