<svg id="visual" viewBox="0 0 900 600" width="900" height="600" xmlns="http://www.w3.org/2000/svg" xmlns:xlink="http://www.w3.org/1999/xlink" version="1.1"><rect x="0" y="0" width="900" height="600" fill="#002233"></rect><path d="M0 481L21.5 480.3C43 479.7 86 478.3 128.8 481C171.7 483.7 214.3 490.3 257.2 479.7C300 469 343 441 385.8 426.8C428.7 412.7 471.3 412.3 514.2 426.2C557 440 600 468 642.8 478.3C685.7 488.7 728.3 481.3 771.2 465.2C814 449 857 424 878.5 411.5L900 399L900 601L878.5 601C857 601 814 601 771.2 601C728.3 601 685.7 601 642.8 601C600 601 557 601 514.2 601C471.3 601 428.7 601 385.8 601C343 601 300 601 257.2 601C214.3 601 171.7 601 128.8 601C86 601 43 601 21.5 601L0 601Z" fill="#0066FF" stroke-linecap="round" stroke-linejoin="miter"></path></svg>